<?xml version="1.0" encoding="utf-8"?>
<!-- Generator: Adobe Illustrator 16.0.0, SVG Export Plug-In . SVG Version: 6.00 Build 0)  -->
<!DOCTYPE svg PUBLIC "-//W3C//DTD SVG 1.1//EN" "http://www.w3.org/Graphics/SVG/1.1/DTD/svg11.dtd">
<svg version="1.1" id="Layer_1" xmlns="http://www.w3.org/2000/svg" xmlns:xlink="http://www.w3.org/1999/xlink" x="0px" y="0px"
	 width="612px" height="320.693px" viewBox="0 235.653 612 320.693" enable-background="new 0 235.653 612 320.693"
	 xml:space="preserve">
<g>
	<path fill="#F03E24" d="M216.772,348.504c0,13.531-2.902,24.108-8.63,31.453c-5.595,7.184-13.18,10.679-23.185,10.679
		c-2.781,0-5.455-0.083-7.974-0.243V312.8c2.73-0.208,4.926-0.312,6.556-0.312C206.214,312.489,216.772,323.932,216.772,348.504z
		 M231.709,396.684v63.666l-7.471,7.472H7.026l-7.472-7.472V243.126l7.472-7.473h217.212l7.471,7.473v62.217
		c-0.707-0.796-1.381-1.617-2.138-2.374c-11.118-11.106-26.266-16.744-45.028-16.744c-4.531,0-15.299,0.304-32.941,0.922
		c-1.845,0.07-3.316,1.584-3.316,3.442v122.875c0,1.904,1.533,3.438,3.443,3.438H179
		C202.955,416.903,220.52,410.089,231.709,396.684z M133.693,378.296c0-13.652-5.555-24.076-16.533-31.064
		c8.248-6.708,12.422-15.771,12.422-27.023c0-11.099-3.882-19.901-11.545-26.157c-7.453-6.085-17.832-9.165-30.834-9.165
		c-6.033,0-12.136,1.299-18.144,3.882c-6.085,2.623-10.679,5.804-13.652,9.47c-0.954,1.183-1.025,2.845-0.171,4.099l10.239,15.025
		c0.574,0.847,1.496,1.395,2.521,1.491c1.012,0.089,2.023-0.268,2.749-0.994c5.015-5.007,10.125-7.555,15.199-7.555
		c9.756,0,14.103,4.017,14.103,13.008c0,5.716-1.75,12.265-15.364,12.265h-3.271c-1.903,0-3.437,1.54-3.437,3.437v17.958
		c0,1.897,1.534,3.438,3.437,3.438h3.857c5.989,0,10.545,1.527,13.957,4.665c3.315,3.073,4.932,6.987,4.932,11.959
		c0,11.143-5.359,16.12-17.375,16.12c-6.682,0-12.787-3.028-18.647-9.241c-0.731-0.777-1.775-1.16-2.819-1.075
		c-1.043,0.101-1.999,0.674-2.572,1.565l-10.908,16.866c-0.917,1.415-0.674,3.271,0.566,4.412c9.394,8.563,20.875,12.9,34.125,12.9
		c14.409,0,25.959-3.516,34.304-10.443C129.366,401.049,133.693,391.005,133.693,378.296z"/>
	<g>
		<path d="M287.32,332.353c-10.284,0-18.934,3.627-26.462,11.099c-8.306,8.254-12.519,19.398-12.519,33.112
			c0,13.187,4.104,23.823,12.188,31.589c7.362,7.172,16.082,10.647,26.633,10.647c7.274,0,13.951-1.102,19.832-3.272
			c3.724-1.313,6.711-2.814,8.886-4.483c0.644-0.503,0.821-1.401,0.407-2.106l-3.913-6.705c-0.229-0.396-0.618-0.677-1.063-0.772
			c-0.453-0.102-0.917,0.008-1.287,0.274c-5.499,3.986-12.207,5.997-19.926,5.997c-7.74,0-14.174-2.42-19.112-7.192
			c-5.582-5.475-8.414-13.385-8.414-23.498c0-0.451,0.362-0.814,0.808-0.814h59.292c0.771,0,1.434-0.542,1.593-1.287
			c0.465-2.202,0.693-4.595,0.693-7.095c0-10.712-3.185-19.049-9.737-25.502C308.525,335.713,299.138,332.353,287.32,332.353z
			 M263.779,366.91c-0.229,0-0.446-0.089-0.606-0.267c-0.152-0.166-0.228-0.395-0.208-0.618c0.604-6.307,3.169-11.652,7.624-15.89
			c4.684-4.47,10.552-6.721,17.444-6.721c7.39,0,13.322,2.314,17.63,6.91c3.939,4.202,5.938,9.508,5.938,15.772
			c0,0.444-0.368,0.813-0.815,0.813H263.779z"/>
		<path d="M375.5,406.817c-3.424-0.396-6.317-1.76-8.599-4.036c-2.761-2.758-4.155-6.563-4.155-11.319v-90.702
			c0-0.898-0.726-1.629-1.623-1.629h-10.19c-0.901,0-1.628,0.731-1.628,1.629v93.243c0,15.718,8.725,24.045,25.94,24.748
			c0.02,0.005,0.038,0.005,0.063,0.005c0.42,0,0.822-0.159,1.128-0.454c0.317-0.304,0.497-0.725,0.497-1.17v-8.698
			C376.934,407.607,376.315,406.913,375.5,406.817z"/>
		<path d="M416.403,301.829c-2.356,0-4.378,0.828-6.009,2.457c-1.627,1.63-2.458,3.652-2.458,6.009c0,2.355,0.847,4.39,2.496,6.044
			c1.662,1.656,3.668,2.496,5.971,2.496c2.36,0,4.397-0.84,6.034-2.496c1.667-1.654,2.507-3.685,2.507-6.044
			c0-2.304-0.84-4.316-2.496-5.971C420.795,302.669,418.757,301.829,416.403,301.829z"/>
		<path d="M420.788,333.938H398.94c-0.898,0-1.624,0.719-1.624,1.623v7.816c0,0.89,0.726,1.616,1.624,1.616h9.222
			c0.443,0,0.807,0.364,0.807,0.815v69.786c0,0.903,0.726,1.621,1.624,1.621h10.195c0.896,0,1.615-0.718,1.615-1.621V335.56
			C422.403,334.657,421.684,333.938,420.788,333.938z"/>
		<path d="M492.237,332.353c-11.047,0-18.781,3.958-23.635,12.123c-0.159,0.261-0.483,0.408-0.751,0.389
			c-0.306-0.013-0.564-0.197-0.694-0.484l-4.124-9.469c-0.255-0.594-0.831-0.974-1.481-0.974h-6.276
			c-0.897,0-1.624,0.719-1.624,1.623v80.033c0,0.903,0.727,1.621,1.624,1.621h10.19c0.898,0,1.627-0.718,1.627-1.621v-60.673
			c0-0.16,0.045-0.318,0.135-0.444c2.069-3.106,5.073-5.754,8.932-7.879c3.848-2.113,7.61-3.181,11.168-3.181
			c6.63,0,11.447,1.934,14.319,5.752c2.854,3.805,4.243,10.171,4.243,19.475v46.951c0,0.903,0.729,1.621,1.624,1.621h10.195
			c0.898,0,1.622-0.718,1.622-1.621v-50.128C519.331,343.489,510.217,332.353,492.237,332.353z"/>
		<path d="M605.715,409.166c-4.5-3.838-10.895-5.787-19.012-5.787c-2.258,0-5.808,0.406-10.563,1.216
			c-4.882,0.833-8.41,1.243-10.757,1.243c-5.694,0-8.586-1.364-8.586-4.064c0-1.947,1.431-3.499,4.239-4.607
			c2.576-1.012,4.595-1.578,6.148-1.757l12.454-1.259c8.548-0.834,15.251-4.016,20.492-9.738c5.251-5.708,7.799-12.576,7.799-21.003
			c0-7.865-1.892-14.312-5.624-19.168c-0.131-0.179-0.188-0.387-0.148-0.612c0.018-0.204,0.133-0.399,0.305-0.527l6.742-5.079
			c0.379-0.293,0.614-0.732,0.64-1.215c0.024-0.471-0.16-0.942-0.503-1.267l-5.856-5.517c-0.325-0.313-0.717-0.446-1.21-0.446
			c-0.449,0.025-0.863,0.242-1.15,0.586l-5.872,7.05c-0.231,0.28-0.561,0.522-1.104,0.127c-4.534-3.309-10.965-4.988-19.097-4.988
			c-8.954,0-16.264,2.825-22.346,8.649c-6.079,5.81-9.024,12.888-9.024,21.612c0,13.625,5.707,22.931,17.451,28.436
			c0.305,0.146,0.496,0.477,0.458,0.82c-0.031,0.337-0.286,0.624-0.618,0.701c-4.034,0.967-7.464,2.571-10.19,4.76
			c-2.646,2.132-3.932,4.417-3.932,6.977c0,8.636,5.646,12.837,17.259,12.837c2.427,0,5.879-0.434,10.235-1.259
			c4.474-0.855,7.617-1.289,9.35-1.289c10.425,0,15.712,3.743,15.712,11.125c0,3.83-2.061,6.923-6.302,9.464
			c-4.045,2.404-9.614,3.641-16.544,3.641c-6.957,0-14.6-2.578-22.721-7.652c-0.738-0.456-1.713-0.267-2.203,0.465l-5.48,8.09
			c-0.245,0.355-0.335,0.803-0.245,1.233c0.086,0.428,0.341,0.803,0.709,1.038c3.338,2.159,7.525,4.042,12.423,5.621
			c5.984,1.922,11.739,2.889,17.113,2.889c10.509,0,19.304-2.379,26.142-7.063c6.826-4.697,10.147-10.681,10.147-18.279
			C612.445,418.266,610.245,413.031,605.715,409.166z M557.512,362.683c0-5.458,1.738-10.182,5.162-14.013
			c3.449-3.856,7.961-5.816,13.409-5.816c5.08,0,9.382,1.96,12.779,5.823c3.366,3.837,5.072,8.548,5.072,14.006
			c0,6.295-1.572,11.469-4.693,15.377c-3.158,3.964-7.588,5.976-13.158,5.976c-5.671,0-10.247-2.068-13.587-6.124
			C559.19,373.892,557.512,368.77,557.512,362.683z"/>
	</g>
	<g>
		<g>
			<path d="M2.775,555.811v-31.467H8.36v26.503h14.219v4.964H2.775z"/>
			<path d="M65.206,555.811l-2.297-6.38H52.125l-2.19,6.38h-6.208l12.544-31.897h2.449l12.651,31.897H65.206z M57.495,533.537
				l-3.779,11.62h7.56L57.495,533.537z"/>
			<path d="M92.948,554.069l2.063-5.004c2.204,1.546,4.374,2.32,6.508,2.32c3.278,0,4.918-1.146,4.918-3.437
				c0-1.075-0.386-2.099-1.16-3.073c-0.773-0.973-2.366-2.063-4.779-3.274c-2.413-1.209-4.038-2.205-4.875-2.986
				c-0.838-0.779-1.483-1.706-1.934-2.781c-0.451-1.075-0.676-2.263-0.676-3.564c0-2.435,0.891-4.455,2.674-6.058
				c1.783-1.604,4.07-2.407,6.863-2.407c3.637,0,6.308,0.682,8.011,2.041l-1.697,4.813c-1.961-1.405-4.031-2.105-6.207-2.105
				c-1.289,0-2.288,0.341-2.997,1.02c-0.708,0.682-1.063,1.566-1.063,2.652c0,1.806,1.998,3.682,5.993,5.629
				c2.105,1.029,3.622,1.979,4.554,2.846c0.931,0.867,1.639,1.876,2.126,3.027c0.486,1.155,0.73,2.439,0.73,3.856
				c0,2.55-1.006,4.647-3.018,6.295c-2.012,1.646-4.708,2.469-8.087,2.469C97.96,556.347,95.311,555.589,92.948,554.069z"/>
			<path d="M142.277,529.305v7.366h10.396v4.747h-10.396v9.429h14.262v4.964h-19.847v-31.467h20.083v4.961H142.277z"/>
			<path d="M199.209,555.811l-8.398-12.994c-0.845-0.016-2.027-0.065-3.544-0.151v13.146h-5.8v-31.467
				c0.315,0,1.525-0.055,3.63-0.163c2.104-0.106,3.801-0.158,5.09-0.158c7.991,0,11.985,3.092,11.985,9.277
				c0,1.861-0.551,3.559-1.653,5.09c-1.103,1.533-2.491,2.615-4.167,3.245l9.3,14.176H199.209z M187.267,529.196v8.743
				c1.031,0.086,1.818,0.128,2.362,0.128c2.333,0,4.042-0.327,5.124-0.986c1.08-0.659,1.622-1.94,1.622-3.847
				c0-1.545-0.581-2.627-1.741-3.241c-1.16-0.617-2.985-0.925-5.477-0.925C188.555,529.068,187.925,529.109,187.267,529.196z"/>
			<path d="M259.59,554.069l2.063-5.004c2.205,1.546,4.373,2.32,6.508,2.32c3.278,0,4.918-1.146,4.918-3.437
				c0-1.075-0.386-2.099-1.16-3.073c-0.773-0.973-2.366-2.063-4.779-3.274c-2.413-1.209-4.038-2.205-4.875-2.986
				c-0.839-0.779-1.483-1.706-1.934-2.781c-0.45-1.075-0.677-2.263-0.677-3.564c0-2.435,0.892-4.455,2.674-6.058
				c1.783-1.604,4.07-2.407,6.863-2.407c3.637,0,6.307,0.682,8.011,2.041l-1.696,4.813c-1.962-1.405-4.031-2.105-6.208-2.105
				c-1.289,0-2.289,0.341-2.997,1.02c-0.708,0.682-1.064,1.566-1.064,2.652c0,1.806,1.999,3.682,5.993,5.629
				c2.105,1.029,3.623,1.979,4.554,2.846c0.931,0.867,1.64,1.876,2.126,3.027c0.486,1.155,0.73,2.439,0.73,3.856
				c0,2.55-1.007,4.647-3.018,6.295c-2.012,1.646-4.708,2.469-8.087,2.469C264.602,556.347,261.952,555.589,259.59,554.069z"/>
			<path d="M324.899,526.019l-2.3,4.617c-1.245-1.246-3.251-1.869-6.015-1.869c-2.62,0-4.767,1.1-6.442,3.3
				c-1.675,2.196-2.512,4.979-2.512,8.342c0,3.366,0.776,6.036,2.33,8.013c1.552,1.977,3.625,2.965,6.217,2.965
				c2.964,0,5.285-1.061,6.961-3.178l2.599,4.509c-2.277,2.419-5.614,3.63-10.009,3.63c-4.397,0-7.812-1.446-10.247-4.339
				c-2.434-2.893-3.651-6.837-3.651-11.835c0-4.652,1.35-8.543,4.049-11.674c2.7-3.129,6.152-4.694,10.362-4.694
				C319.852,523.805,322.737,524.544,324.899,526.019z"/>
			<path d="M368.363,555.811l-2.299-6.38h-10.783l-2.189,6.38h-6.207l12.544-31.897h2.448l12.651,31.897H368.363z M360.654,533.537
				l-3.783,11.62h7.563L360.654,533.537z"/>
			<path d="M418.25,556.24l-15.271-19.911v19.502h-5.369v-31.487h2.685l14.865,18.986v-18.986h5.368v31.896H418.25z"/>
			<path d="M467.364,556.24l-15.272-19.911v19.502h-5.369v-31.487h2.685l14.864,18.986v-18.986h5.369v31.896H467.364z"/>
			<path d="M495.943,555.811v-31.467h5.583v31.467H495.943z"/>
			<path d="M548.471,556.24l-15.272-19.911v19.502h-5.369v-31.487h2.686l14.864,18.986v-18.986h5.369v31.896H548.471z"/>
			<path d="M600.183,526.899l-2.34,4.488c-0.659-0.586-1.676-1.17-3.052-1.751c-1.372-0.578-2.554-0.87-3.544-0.87
				c-3.092,0-5.534,1.051-7.323,3.147c-1.791,2.098-2.686,4.909-2.686,8.432c0,3.35,0.877,6.027,2.631,8.034
				c1.754,2.003,4.143,3.006,7.164,3.006c1.991,0,3.631-0.545,4.918-1.634v-6.185h-4.359v-4.771h9.944v14.092
				c-1.331,1.089-3.048,1.938-5.143,2.546c-2.099,0.607-4.188,0.912-6.261,0.912c-4.512,0-8.088-1.479-10.731-4.436
				c-2.64-2.956-3.962-6.863-3.962-11.715c0-4.856,1.439-8.801,4.318-11.838c2.876-3.034,6.751-4.554,11.62-4.554
				C594.827,523.805,597.763,524.836,600.183,526.899z"/>
		</g>
	</g>
</g>
</svg>
