<?xml version="1.0" encoding="UTF-8"?>
<svg width="32px" height="32px" viewBox="0 0 32 32" version="1.1" xmlns="http://www.w3.org/2000/svg" xmlns:xlink="http://www.w3.org/1999/xlink">
    <title>favicon-32x32</title>
    <g id="favicon-32x32" stroke="none" stroke-width="1" fill="none" fill-rule="evenodd">
        <g id="Bird" transform="translate(0.000000, 2.105263)">
            <g id="g12" transform="translate(10.290141, 19.886746) scale(1, -1) translate(-10.290141, -19.886746) translate(0.790141, 17.386746)" fill="#D9B42F">
                <polygon id="path14" points="13.125 4.83527733 0.00734375 0.0433615193 18.2092187 2.18398559"></polygon>
            </g>
            <g id="g16" transform="translate(9.758891, 18.606862) scale(1, -1) translate(-9.758891, -18.606862) translate(3.758891, 15.606862)" fill="#FFE188">
                <polygon id="path18" points="10.15625 4.05539389 11.8876563 0.0131020418 0.10875 5.59925114"></polygon>
            </g>
            <g id="g20" transform="translate(30.582344, 9.293264) scale(1, -1) translate(-30.582344, -9.293264) translate(29.082344, 7.793264)" fill="#E83F00">
                <polygon id="path22" points="2.8125 2.80758038 1.36671875 2.23046664 0.0315625 0.138039369"></polygon>
            </g>
            <g id="g24" transform="translate(25.925406, 9.571963) scale(1, -1) translate(-25.925406, -9.571963) translate(21.925406, 8.071963)" fill="#CD2015">
                <polygon id="path26" points="7.1875 2.49562701 0.08578125 0.684113753 3.183125 0.0397740554"></polygon>
            </g>
            <g id="g28" transform="translate(26.362906, 8.824149) scale(1, -1) translate(-26.362906, -8.824149) translate(22.862906, 7.824149)" fill="#E83F00">
                <polygon id="path30" points="6.25 1.2478135 0.01140625 0.925721643 1.891875 0.138195346"></polygon>
            </g>
            <g id="g32" transform="translate(21.762141, 12.882060) scale(1, -1) translate(-21.762141, -12.882060) translate(13.762141, 7.382060)" fill="#EA4F86">
                <polygon id="path34" points="11.71875 0.77988344 14.2146875 5.54216368 15.6889063 10.0077763 0.15296875 0.830575863 5.16421875 0.142250739"></polygon>
            </g>
            <g id="g36" transform="translate(16.403656, 10.703686) scale(1, -1) translate(-16.403656, -10.703686) translate(13.903656, 3.703686)" fill="#00A2C9">
                <polygon id="path38" points="0.0115625 0.152233247 2.87885105 1.69607491 4.375 13.1020418"></polygon>
            </g>
            <g id="g40" transform="translate(15.403656, 4.189108) scale(1, -1) translate(-15.403656, -4.189108) translate(11.403656, 0.189108)" fill="#00A2C9">
                <polygon id="path42" points="6.875 3.58746382 0.12640625 7.9186245 7.0403125 0.105440241"></polygon>
            </g>
            <g id="g44" transform="translate(14.596375, 6.408269) scale(1, -1) translate(-14.596375, -6.408269) translate(10.096375, 3.408269)" fill="#5A8794">
                <polygon id="path46" points="8.28125 2.80758038 0.1465625 5.31677736 8.3809375 0.0152857154"></polygon>
            </g>
            <g id="g48" transform="translate(14.721375, 8.500106) scale(1, -1) translate(-14.721375, -8.500106) translate(10.721375, 6.500106)" fill="#005971">
                <polygon id="path50" points="7.65625 3.8994172 0.02703125 0.135855695 7.7559375 1.10712253"></polygon>
            </g>
            <g id="g52" transform="translate(29.986562, 9.815876) scale(1, -1) translate(-29.986562, -9.815876) translate(27.986562, 6.815876)" fill="#CD2015">
                <polygon id="path54" points="0 0 3.66171875 5.72450043 1.46453125 4.44159217"></polygon>
            </g>
            <g id="g56" transform="translate(17.912594, 10.105518) scale(1, -1) translate(-17.912594, -10.105518) translate(16.412594, 4.105518)" fill="#5EB2D1">
                <polygon id="path58" points="2.34375 1.40379019 1.86609375 11.5039046 0.1440625 0.112927122"></polygon>
            </g>
            <g id="g60" transform="translate(24.488125, 14.215384) scale(1, -1) translate(-24.488125, -14.215384) translate(22.488125, 10.715384)" fill="#F59B00">
                <polygon id="path62" points="2.5 6.70699758 3.81390625 1.67316193 2.9928125 0.113239075 0.12015625 5.30024383"></polygon>
            </g>
            <g id="g64" transform="translate(20.637141, 19.157570) scale(1, -1) translate(-20.637141, -19.157570) translate(15.637141, 16.657570)" fill="#E83F00">
                <polygon id="path66" points="9.84375 4.05539389 3.28921875 3.41776119 0.009375 0.0637944654"></polygon>
            </g>
            <g id="g68" transform="translate(22.137141, 11.382060) scale(1, -1) translate(-22.137141, -11.382060) translate(18.137141, 4.382060)" fill="#BAE2F5">
                <polygon id="path70" points="7.34375 0.77988344 0.1415625 13.7803844 0.78921875 0.142250739"></polygon>
            </g>
            <g id="g72" transform="translate(15.537594, 17.284819) scale(1, -1) translate(-15.537594, -17.284819) translate(12.037594, 13.784819)" fill="#F59B00">
                <polygon id="path74" points="6.71875 6.08309083 6.88890625 2.54491564 0.04765625 0.136323625 1.8775 3.23339674"></polygon>
            </g>
            <g id="g76" transform="translate(9.508891, 22.501907) scale(1, -1) translate(-9.508891, -22.501907) translate(0.008891, 17.001907)" fill="#FFD130">
                <polygon id="path78" points="13.90625 10.4504381 18.9175 9.76195699 15.6376562 6.40814625 0.02203125 0.0942099195"></polygon>
            </g>
        </g>
    </g>
</svg>